<?xml version="1.0" standalone="no"?>
<!DOCTYPE svg PUBLIC "-//W3C//DTD SVG 20010904//EN"
 "http://www.w3.org/TR/2001/REC-SVG-20010904/DTD/svg10.dtd">
<svg version="1.0" xmlns="http://www.w3.org/2000/svg"
 width="604.000000pt" height="604.000000pt" viewBox="0 0 604.000000 604.000000"
 preserveAspectRatio="xMidYMid meet">
<metadata>
Created by potrace 1.11, written by Peter Selinger 2001-2013
</metadata>
<g transform="translate(0.000000,604.000000) scale(0.100000,-0.100000)"
fill="#000000" stroke="none">
<path d="M2725 6029 c-121 -13 -175 -20 -265 -35 -25 -4 -49 -7 -53 -6 -5 2
-6 -2 -2 -8 3 -5 -3 -10 -14 -10 -45 0 -398 -94 -411 -110 -3 -3 -18 -11 -35
-18 -16 -6 -73 -27 -125 -47 -52 -20 -102 -42 -110 -49 -8 -7 -59 -34 -112
-60 -54 -26 -103 -53 -110 -59 -14 -14 -90 -62 -98 -62 -4 0 -90 -57 -115 -77
-57 -45 -115 -86 -137 -97 -16 -8 -26 -16 -23 -19 5 -6 -66 -71 -78 -72 -5 0
-35 -26 -66 -57 -32 -32 -72 -70 -90 -85 -17 -16 -28 -28 -24 -28 5 0 -21 -27
-57 -60 -36 -33 -60 -60 -55 -60 7 0 6 -3 0 -8 -6 -4 -21 -21 -35 -37 -14 -17
-29 -31 -34 -32 -4 -1 -22 -23 -40 -50 -43 -65 -78 -115 -94 -132 -15 -16 -66
-93 -67 -101 -1 -10 -49 -85 -57 -88 -5 -2 -31 -52 -60 -110 -28 -59 -55 -109
-59 -112 -7 -5 -65 -144 -94 -227 -11 -29 -22 -53 -26 -53 -4 0 -9 -10 -12
-22 -2 -13 -18 -70 -35 -128 -17 -58 -38 -141 -48 -185 -9 -44 -20 -84 -24
-90 -10 -12 -38 -191 -48 -299 -14 -164 -7 -603 12 -726 2 -14 10 -62 16 -107
7 -46 16 -83 20 -83 5 0 11 -24 15 -52 10 -71 82 -337 99 -363 7 -11 27 -58
44 -105 40 -109 81 -208 82 -195 0 6 21 -33 46 -85 25 -52 53 -103 62 -112 8
-10 11 -18 6 -18 -5 0 -4 -4 2 -8 14 -9 67 -90 81 -124 7 -15 28 -45 48 -66
19 -22 35 -42 35 -46 0 -9 71 -100 133 -170 29 -32 52 -62 53 -65 1 -9 139
-146 225 -223 120 -109 143 -128 154 -128 5 0 19 -11 30 -24 11 -13 47 -40 80
-61 33 -20 65 -43 70 -50 13 -16 180 -115 194 -115 6 0 11 -5 11 -10 0 -6 48
-34 107 -61 59 -28 110 -53 113 -57 8 -11 230 -96 278 -107 17 -3 32 -10 32
-14 0 -6 120 -44 180 -56 8 -2 35 -8 60 -14 25 -5 59 -12 75 -15 17 -3 44 -9
60 -12 35 -8 61 -12 93 -13 13 -1 21 -5 18 -9 -3 -5 14 -9 36 -11 23 -1 44 -4
48 -6 39 -24 647 -25 765 -1 11 3 37 5 58 5 21 1 36 5 33 9 -3 5 29 14 72 20
155 23 368 76 432 107 25 13 60 26 78 30 18 4 45 13 62 21 16 8 37 17 47 19
30 6 103 41 97 47 -2 3 7 9 21 12 42 11 207 95 219 112 7 8 18 16 26 18 18 2
179 96 166 96 -5 0 28 25 73 55 46 30 91 66 102 79 11 14 24 25 28 23 8 -2 95
72 194 165 21 21 44 38 50 38 6 0 8 3 5 6 -4 3 13 25 35 48 78 81 172 188 172
197 0 5 13 21 28 35 16 14 48 57 72 94 24 37 47 69 52 71 9 4 34 46 90 149 14
25 28 47 32 50 9 6 49 72 51 82 0 4 14 36 30 70 17 35 30 69 30 76 0 6 4 12 9
12 11 0 42 73 82 192 17 51 35 95 40 98 4 3 10 17 13 30 3 14 21 88 41 165 19
77 40 174 46 215 7 41 15 80 19 85 7 9 10 30 27 200 16 155 6 572 -16 685 -5
25 -7 49 -4 54 4 5 1 6 -5 2 -8 -5 -12 1 -13 16 -1 25 -4 47 -25 160 -16 85
-76 303 -84 306 -6 2 -10 11 -10 21 0 9 -5 22 -12 29 -7 7 -9 12 -5 12 4 0 -3
24 -14 53 -11 28 -28 72 -36 97 -8 25 -19 49 -24 55 -5 5 -9 17 -9 28 0 10 -4
15 -10 12 -5 -3 -10 -2 -10 4 0 19 -100 221 -110 221 -6 0 -10 5 -10 11 0 17
-95 172 -128 209 -17 18 -30 36 -27 38 5 5 -42 70 -70 95 -11 10 -20 22 -20
26 0 21 -333 381 -352 381 -4 0 -65 53 -100 88 -13 12 -26 22 -29 22 -3 0 -27
18 -53 40 -26 22 -52 40 -57 40 -5 0 -26 15 -46 34 -19 18 -62 48 -96 66 -33
17 -68 39 -79 49 -10 9 -68 42 -130 73 -62 30 -109 58 -106 62 3 3 0 6 -8 6
-9 0 -34 9 -57 20 -57 28 -172 71 -204 77 -15 3 -26 9 -23 13 5 9 -98 40 -265
81 -69 16 -134 34 -145 38 -21 9 -166 33 -287 48 -72 8 -548 10 -623 2z m133
-171 c8 -8 15 -8 24 -1 20 17 268 17 268 1 0 -9 3 -9 10 2 6 10 10 11 10 3 0
-7 5 -13 11 -13 5 0 7 6 3 13 -6 9 -4 9 7 1 8 -6 55 -15 104 -19 134 -12 131
-11 260 -35 66 -12 127 -23 135 -25 8 -1 35 -8 60 -15 25 -6 56 -14 70 -17 13
-2 27 -8 30 -12 3 -4 57 -24 121 -45 64 -20 166 -61 228 -91 61 -30 115 -55
120 -55 4 0 58 -31 120 -70 61 -38 114 -69 116 -69 11 -1 60 -36 68 -48 4 -7
22 -20 40 -30 47 -24 117 -79 110 -87 -3 -3 0 -6 7 -6 16 0 105 -74 188 -156
35 -35 65 -63 68 -63 2 0 23 -22 46 -48 22 -27 53 -61 68 -78 66 -71 100 -113
100 -123 0 -6 8 -17 19 -24 10 -7 40 -47 66 -88 26 -41 53 -80 60 -85 13 -10
37 -52 88 -148 14 -25 33 -58 44 -74 21 -31 29 -47 72 -150 17 -39 31 -77 31
-84 0 -7 3 -9 7 -6 10 11 113 -297 113 -338 0 -8 4 -15 9 -15 5 0 12 -17 16
-37 5 -21 9 -42 11 -48 7 -29 15 -74 20 -110 3 -22 7 -46 10 -54 3 -8 7 -40
10 -70 3 -31 7 -62 10 -70 21 -65 21 -664 -1 -700 -1 -4 -6 -33 -9 -66 -4 -33
-9 -69 -12 -80 -2 -11 -6 -31 -8 -45 -15 -92 -40 -200 -47 -200 -4 0 -13 -24
-19 -52 -19 -86 -64 -213 -75 -211 -6 0 -16 -5 -23 -13 -7 -8 -11 -14 -8 -14
3 0 -2 -20 -11 -45 -9 -29 -25 -51 -43 -62 -16 -9 -27 -20 -24 -24 3 -5 -13
-17 -34 -28 -22 -11 -42 -26 -45 -34 -3 -7 -31 -22 -63 -32 -33 -11 -66 -25
-75 -32 -8 -7 -19 -13 -24 -13 -4 0 -23 -11 -42 -26 -18 -14 -33 -20 -33 -14
0 6 -15 0 -33 -14 -19 -14 -47 -27 -63 -28 -30 -2 -58 -21 -47 -32 4 -3 -11
-6 -33 -7 -21 0 -33 -3 -25 -6 13 -5 54 -42 49 -44 -2 0 -14 -3 -27 -5 -37 -7
-38 -14 -3 -14 35 0 64 23 56 45 -4 10 0 15 14 15 32 0 53 11 45 24 -3 6 -3 8
1 4 4 -3 22 0 41 7 18 8 35 12 37 9 9 -9 59 16 53 26 -11 17 5 31 19 17 19
-16 11 -26 -38 -47 -32 -14 -37 -19 -24 -25 11 -4 25 1 40 15 13 12 31 19 41
16 10 -2 20 1 23 9 3 7 26 21 52 31 54 20 78 39 62 49 -7 4 5 19 27 36 41 31
53 35 53 18 0 -16 -26 -39 -35 -31 -5 4 -4 0 1 -8 11 -19 6 -49 -10 -66 -7 -7
-34 -46 -60 -88 -26 -42 -53 -76 -59 -76 -7 0 -21 -10 -31 -22 -17 -20 -20
-20 -31 -5 -11 15 -13 14 -23 -7 -6 -14 -26 -29 -46 -36 -20 -6 -36 -17 -36
-24 0 -11 -106 -66 -128 -66 -5 0 -19 -12 -33 -27 -13 -14 -19 -23 -12 -19 6
3 14 3 17 -2 2 -4 -7 -9 -22 -10 -15 -1 -28 -6 -30 -12 -2 -5 -10 -6 -18 -3
-8 3 -14 1 -14 -4 0 -15 -37 -32 -85 -39 -55 -7 -54 7 3 34 38 18 61 52 26 37
-39 -16 -148 -43 -177 -44 -10 -1 -16 -5 -13 -9 3 -5 0 -9 -7 -9 -15 -1 -102
-12 -144 -19 -18 -3 -33 -9 -33 -14 0 -6 -3 -9 -7 -9 -5 1 -10 0 -13 -1 -15
-6 -263 -6 -311 -1 -61 7 -82 4 -74 -9 3 -5 -8 -5 -24 0 -16 4 -32 6 -35 3 -9
-9 -106 8 -100 18 6 11 -45 32 -62 25 -8 -3 -11 0 -8 8 5 14 -39 40 -73 42
-11 0 -50 15 -86 32 -36 18 -69 32 -74 32 -4 0 -30 16 -58 34 -27 19 -53 32
-57 30 -4 -3 -28 15 -53 40 -26 24 -83 66 -128 91 -44 26 -95 61 -113 79 -35
34 -99 74 -93 59 6 -15 142 -133 153 -133 19 0 77 -52 72 -66 -3 -9 20 -30 65
-59 62 -40 80 -65 47 -65 -6 0 -8 3 -5 7 6 6 -36 33 -58 37 -5 1 -28 14 -50
29 -22 14 -55 31 -73 38 -18 6 -31 14 -28 16 6 6 -8 24 -61 79 -22 23 -38 46
-35 50 4 4 2 4 -5 1 -6 -4 -29 13 -54 40 -24 27 -35 35 -25 20 l17 -28 -23 13
c-13 7 -26 17 -29 21 -3 5 -10 8 -14 7 -5 -1 -19 18 -33 41 -13 24 -30 53 -37
65 -13 20 -12 21 11 18 14 -1 31 -8 39 -14 9 -8 15 -8 15 -2 0 6 -4 12 -8 14
-5 2 -22 28 -39 58 -18 30 -41 65 -52 76 -24 26 -72 120 -65 127 3 3 -8 37
-25 75 -17 39 -31 74 -31 79 0 5 -11 31 -23 58 -21 43 -25 47 -35 30 -9 -17
-12 -13 -22 25 -6 25 -15 61 -21 80 -11 44 -11 63 0 56 5 -4 8 2 6 11 -2 10
-4 18 -5 18 -2 0 -5 28 -14 127 -7 96 -9 101 -21 110 -13 9 -16 157 -4 180 5
10 6 18 1 18 -8 0 -7 30 0 127 1 7 4 10 8 8 4 -3 18 39 30 93 36 151 56 198
90 212 33 13 53 34 56 57 2 8 13 27 26 41 13 14 17 22 11 18 -7 -4 -13 -3 -13
3 0 16 36 32 55 25 9 -4 28 2 43 13 28 20 200 101 265 124 20 7 37 16 37 20 0
3 49 21 110 39 62 19 106 38 103 43 -4 6 3 8 15 5 12 -4 20 -2 16 3 -3 5 0 9
5 9 6 0 11 -5 11 -11 0 -6 17 -1 38 11 20 12 28 15 18 6 -23 -19 -17 -20 18
-5 14 7 23 16 20 20 -3 5 5 10 18 10 73 4 88 3 88 -4 0 -12 -83 -117 -92 -117
-5 0 -8 -12 -8 -26 0 -14 -3 -23 -8 -20 -25 16 -156 -166 -134 -188 3 -3 -2
-6 -10 -6 -9 0 -18 -12 -21 -27 -3 -16 -14 -46 -23 -68 -20 -44 -21 -48 -23
-71 0 -8 -5 -13 -10 -10 -11 7 -41 -100 -45 -157 -1 -23 -7 -51 -13 -63 -7
-11 -8 -26 -4 -32 4 -7 6 -32 5 -55 -9 -126 -5 -252 12 -337 2 -14 6 -36 9
-50 11 -59 28 -125 34 -130 4 -3 20 -47 35 -99 27 -92 46 -127 61 -113 4 4 6
3 4 -3 -3 -15 12 -65 20 -65 4 0 24 -27 45 -60 21 -33 40 -60 41 -60 2 0 2 28
1 63 -3 59 -35 170 -56 191 -6 6 -10 18 -10 28 0 9 -7 21 -15 26 -28 15 -74
212 -75 322 0 22 -3 30 -8 22 -9 -14 -11 9 -10 123 1 39 1 90 2 115 0 25 6 51
13 58 7 7 13 21 14 30 3 90 11 137 29 197 12 39 25 72 29 75 9 7 43 101 47
132 3 24 50 101 81 135 6 7 15 22 18 33 3 11 12 20 19 20 15 0 46 32 50 52 6
34 18 58 30 58 7 0 18 11 24 25 6 14 19 25 27 25 10 0 14 -5 10 -12 -4 -7 5
-1 19 15 14 15 29 27 33 27 4 1 28 22 53 47 25 26 36 40 25 32 -11 -8 -23 -18
-27 -24 -15 -20 -8 10 7 31 8 12 12 24 9 26 -3 3 7 8 21 11 22 4 26 1 22 -13
-6 -25 20 -14 28 11 4 10 11 19 16 19 5 0 9 4 9 10 0 5 -6 8 -12 5 -18 -6 -83
-16 -150 -23 -48 -6 -56 -10 -48 -22 6 -10 10 -11 10 -2 0 6 4 12 10 12 5 0 7
-7 3 -16 -5 -13 -17 -14 -78 -9 -44 4 -94 2 -130 -5 -32 -7 -69 -13 -82 -15
-14 -1 -30 -8 -36 -14 -9 -9 -8 -11 6 -6 10 4 17 2 17 -4 0 -6 -1 -11 -3 -11
-1 0 -16 -4 -33 -9 -24 -7 -31 -6 -31 6 0 7 6 12 14 9 7 -3 13 1 13 10 0 12
-4 12 -20 4 -11 -6 -20 -15 -20 -21 0 -6 -5 -7 -10 -4 -6 4 -45 -1 -88 -11
-42 -9 -83 -17 -89 -17 -7 0 -13 -8 -13 -18 0 -23 -10 -29 -57 -35 -66 -8 -86
-13 -92 -22 -3 -5 -23 -15 -44 -21 -20 -7 -35 -17 -32 -22 4 -5 0 -9 -8 -9 -7
0 -19 -11 -27 -24 -7 -14 -18 -22 -25 -20 -7 3 -25 -9 -41 -25 -16 -17 -33
-31 -39 -31 -5 0 -3 5 5 10 9 6 10 10 3 10 -6 0 -15 -5 -18 -10 -4 -6 -10 -8
-14 -6 -4 3 -25 -11 -46 -30 -21 -19 -42 -34 -45 -34 -4 0 -12 -11 -18 -25 -6
-14 -17 -25 -23 -25 -8 0 -7 6 2 17 12 14 12 16 -2 11 -13 -5 -15 0 -14 27 3
42 43 108 60 101 12 -4 20 11 30 52 2 7 16 29 32 49 15 19 33 43 38 52 6 9 12
18 15 21 22 21 61 82 56 87 -3 4 -6 1 -6 -5 0 -7 -4 -12 -10 -12 -6 0 -6 9 -1
23 12 31 -8 49 -34 31 -10 -8 -15 -14 -11 -14 5 0 3 -6 -3 -14 -7 -8 -13 -23
-16 -34 -6 -31 -47 -122 -55 -122 -4 0 -13 -14 -20 -30 -7 -17 -15 -28 -18
-26 -6 6 -39 -63 -84 -169 l-29 -70 5 50 c2 28 12 71 21 98 12 35 13 52 5 65
-9 14 -10 13 -4 -7 4 -17 3 -21 -6 -16 -8 5 -11 4 -7 -2 4 -5 -5 -25 -19 -44
l-25 -34 6 30 c6 27 5 28 -6 10 -7 -11 -16 -35 -19 -55 -4 -19 -19 -91 -33
-160 -31 -149 -35 -173 -36 -223 -1 -26 -5 -36 -13 -31 -6 4 -8 3 -5 -3 3 -5
2 -26 -3 -46 -6 -29 -5 -37 6 -37 8 0 14 -5 14 -11 0 -5 -6 -7 -12 -3 -8 5 -7
0 2 -11 8 -10 10 -16 3 -12 -8 5 -13 -9 -17 -45 -4 -29 -9 -75 -13 -103 -3
-27 -5 -65 -4 -83 0 -18 -3 -31 -8 -28 -5 3 -11 -3 -14 -13 -3 -12 0 -18 7
-15 7 3 11 -10 12 -35 1 -27 -3 -38 -11 -34 -10 3 -11 -7 -4 -42 5 -25 13 -54
18 -64 6 -10 12 -31 15 -46 3 -16 11 -32 17 -36 6 -3 11 -20 11 -35 0 -16 9
-41 19 -56 19 -27 26 -64 10 -54 -5 3 -1 -15 9 -42 10 -26 20 -58 24 -72 5
-21 4 -21 -9 5 l-15 30 6 -35 c3 -19 14 -53 25 -76 10 -22 19 -45 19 -52 0 -6
8 -16 18 -21 14 -9 14 -12 4 -19 -11 -8 -11 -10 2 -15 9 -4 16 -14 16 -23 0
-29 23 -95 29 -85 4 5 14 -4 23 -20 10 -17 13 -27 8 -24 -6 3 -7 -1 -4 -9 3
-9 10 -16 14 -16 5 0 12 -9 15 -21 4 -11 9 -18 12 -15 9 8 54 -57 49 -70 -2
-6 0 -17 5 -25 7 -12 9 -12 9 0 0 8 11 0 24 -18 14 -18 34 -40 45 -48 11 -7
34 -34 51 -58 16 -24 40 -47 53 -50 27 -9 68 -45 62 -55 -3 -4 21 -31 53 -59
73 -67 72 -65 121 -90 22 -12 41 -27 41 -34 0 -9 2 -9 8 0 5 8 11 8 24 -1 10
-7 15 -16 12 -19 -3 -3 4 -11 16 -17 12 -6 19 -14 16 -17 -11 -11 96 -72 137
-78 74 -11 162 -40 165 -54 2 -9 -6 -11 -30 -6 -18 4 -35 11 -38 15 -3 4 -15
10 -27 14 -18 6 -22 4 -17 -7 3 -8 22 -18 42 -22 20 -4 43 -11 50 -17 7 -6 26
-12 44 -14 17 -2 36 -8 43 -14 6 -5 15 -7 18 -3 4 3 17 1 30 -5 12 -6 48 -16
80 -22 31 -6 57 -15 57 -20 0 -17 108 -38 203 -39 22 -1 36 -5 32 -11 -3 -5
11 -2 32 6 21 9 49 18 63 21 13 2 27 9 31 14 3 6 9 0 12 -13 5 -15 1 -27 -10
-36 -14 -10 -11 -12 23 -12 29 0 35 3 24 10 -13 9 -13 10 0 10 8 0 32 -4 52
-9 28 -7 38 -5 42 5 7 19 26 18 26 -2 0 -14 3 -14 15 -4 8 7 15 9 15 6 0 -4 9
-2 19 4 14 7 22 7 26 0 17 -27 155 9 168 43 9 23 56 27 62 6 9 -28 27 -23 53
15 13 19 33 36 45 39 12 2 31 8 42 12 14 6 10 -1 -12 -23 -18 -18 -38 -32 -45
-32 -11 0 -11 -2 0 -8 13 -9 11 -12 -68 -82 -25 -22 -51 -40 -58 -40 -7 0 -11
-4 -7 -9 3 -6 -1 -13 -9 -18 -8 -4 -31 -24 -53 -43 -21 -19 -40 -35 -43 -35
-11 0 -50 -32 -45 -37 3 -2 -1 -5 -7 -5 -16 0 -109 -55 -158 -91 -45 -35 -135
-92 -183 -116 -20 -11 -37 -22 -37 -26 0 -10 -189 -83 -285 -110 -16 -4 -25
-9 -20 -9 21 -3 -201 -71 -246 -75 -56 -6 -162 -35 -170 -48 -3 -5 -47 -11
-98 -13 -51 -3 -96 -7 -101 -10 -27 -17 -414 -24 -560 -11 -169 15 -231 26
-224 37 3 5 -7 9 -23 10 -15 0 -35 2 -43 4 -34 7 -77 16 -110 21 -90 15 -302
74 -316 88 -8 9 -20 16 -26 16 -6 0 -40 12 -75 26 -36 14 -72 23 -81 21 -14
-4 -13 -6 5 -12 13 -4 20 -11 17 -16 -6 -10 -43 7 -111 50 -48 29 -53 41 -20
41 18 0 19 -2 7 -10 -12 -8 -11 -10 8 -10 41 0 22 16 -58 49 -49 20 -78 37
-74 43 4 7 2 8 -4 4 -13 -8 -72 23 -72 38 0 5 8 2 18 -7 10 -10 22 -17 27 -17
4 0 -2 9 -15 20 -13 12 -30 18 -37 15 -8 -2 -11 0 -8 5 6 9 -31 29 -62 34 -7
1 -16 6 -20 11 -4 4 -1 5 7 1 8 -4 4 1 -10 11 -13 10 -34 27 -44 38 -11 11
-34 27 -51 36 -123 66 -143 81 -149 104 -4 14 -13 25 -22 25 -18 0 -204 186
-204 204 0 6 -21 33 -47 58 -42 41 -102 123 -140 191 -7 12 -13 18 -13 13 0
-12 -38 45 -79 119 -19 33 -40 64 -47 68 -8 4 -14 14 -14 21 0 21 -96 197
-103 189 -4 -3 -7 0 -7 8 0 8 -8 23 -17 34 l-16 20 7 -20 c5 -13 4 -17 -3 -10
-16 17 -51 114 -51 144 0 30 -26 111 -38 121 -11 8 -59 200 -68 277 -6 50 -48
186 -55 179 -3 -3 -6 5 -6 17 -2 17 0 19 7 7 16 -24 12 7 -6 59 -15 43 -11
101 6 101 5 0 16 26 25 58 35 122 63 196 84 221 12 14 26 33 31 41 13 21 12 6
-1 -24 -7 -14 -15 -23 -19 -21 -4 3 -17 -19 -29 -48 -17 -40 -18 -48 -6 -36 9
9 17 24 19 33 1 10 8 21 14 25 6 4 28 38 47 76 61 117 79 149 92 163 7 7 34
51 60 98 26 46 50 84 55 84 4 0 16 17 27 38 11 20 35 55 55 77 19 22 33 41 32
43 -2 1 8 16 23 32 50 55 88 100 84 100 -3 0 10 12 29 28 18 15 71 64 118 109
47 45 103 97 124 115 22 18 51 43 64 56 14 12 28 22 31 22 3 0 31 23 61 50 30
27 60 50 65 50 6 0 24 13 40 28 17 15 64 49 105 76 41 27 80 54 85 61 6 6 55
36 110 65 55 29 107 58 115 64 19 16 127 68 136 66 4 -1 10 2 13 7 3 4 15 15
26 23 l20 15 -20 -24 -20 -23 45 23 c25 13 51 29 59 37 8 8 25 12 37 9 14 -2
21 0 17 6 -4 6 0 8 9 4 16 -6 86 14 128 37 14 7 43 19 65 26 55 17 95 34 95
41 0 3 6 6 13 6 6 0 37 5 67 12 212 44 392 64 600 65 119 0 316 -9 370 -18 14
-3 44 -7 67 -10 46 -6 58 -8 158 -31 39 -9 79 -20 90 -25 11 -5 29 -10 40 -12
12 -2 -11 -14 -55 -29 -124 -43 -235 -84 -240 -89 -3 -3 -27 -16 -55 -30 -52
-26 -77 -45 -70 -52 3 -3 -6 -10 -19 -18 -13 -7 -27 -21 -29 -31 -4 -16 -1
-18 26 -14 64 11 87 17 87 24 0 10 60 39 107 51 62 16 174 65 166 73 -3 4 3 8
15 8 28 2 29 2 74 17 20 7 60 15 90 17 76 5 264 68 246 82 -7 5 -20 10 -28 11
-35 1 -211 44 -290 71 -46 16 -89 26 -95 23 -25 -16 -115 -9 -115 9 0 5 11 7
25 5 15 -3 23 -1 20 5 -4 5 -10 7 -15 4 -5 -3 -15 1 -23 9 -8 8 -23 15 -33 15
-47 -1 -94 5 -94 12 0 12 -76 22 -185 25 -180 5 -304 12 -315 19 -5 3 -56 1
-112 -6 -57 -6 -116 -11 -133 -11 -16 1 -37 -5 -45 -13 -14 -13 -49 -22 -107
-29 -15 -2 -23 2 -23 12 0 12 -9 13 -47 7 -27 -5 -68 -10 -93 -11 -25 -2 -45
-4 -45 -4 0 -1 -16 -3 -35 -5 -88 -11 -120 -17 -120 -24 0 -4 -19 -13 -42 -18
-24 -6 -61 -18 -84 -27 -23 -8 -52 -17 -65 -19 -41 -6 -169 -51 -169 -58 0 -5
-27 -16 -60 -25 -33 -9 -57 -20 -55 -24 3 -5 -27 -20 -65 -35 -39 -15 -76 -33
-84 -40 -7 -7 -24 -15 -37 -17 -13 -1 -28 -13 -34 -25 -5 -13 -31 -32 -57 -43
-59 -25 -73 -25 -28 1 19 11 27 18 17 15 -10 -3 -23 -6 -28 -6 -5 0 -18 -14
-28 -31 -15 -24 -20 -27 -25 -14 -4 10 -2 14 6 9 7 -4 8 -3 4 5 -10 15 -36 -4
-36 -25 0 -8 -18 -25 -39 -39 -22 -13 -54 -42 -72 -64 -17 -22 -35 -38 -40
-36 -4 3 -9 2 -11 -2 -9 -20 -72 -63 -93 -63 -15 0 -39 -15 -62 -38 -21 -22
-55 -47 -76 -57 -20 -9 -37 -23 -37 -30 0 -22 -48 -72 -76 -79 -15 -4 -39 -21
-53 -38 -14 -18 -36 -41 -49 -52 -13 -12 -38 -36 -55 -54 -18 -19 -58 -60 -89
-92 -32 -32 -58 -61 -58 -66 -1 -14 -56 -84 -62 -78 -3 3 -8 -2 -12 -11 -4
-11 -2 -14 7 -9 25 14 57 48 57 60 0 6 7 14 15 17 12 5 12 2 2 -21 -15 -36
-58 -88 -69 -84 -5 1 -7 -2 -4 -7 3 -5 0 -14 -7 -20 -7 -5 -24 -33 -37 -60
-13 -28 -27 -48 -32 -45 -4 3 -8 -1 -8 -8 0 -7 -13 -28 -29 -47 -20 -24 -31
-30 -36 -21 -6 9 -13 4 -24 -16 -8 -16 -14 -33 -13 -37 1 -5 -1 -6 -6 -3 -5 3
-17 -12 -27 -34 -10 -22 -22 -37 -26 -34 -5 3 -9 0 -9 -7 0 -19 -102 -229
-112 -229 -4 0 -8 39 -8 86 0 65 3 83 13 78 7 -5 6 0 -3 11 -9 11 -10 16 -3
11 9 -5 12 -1 11 11 -3 18 11 188 17 226 4 22 12 71 20 137 10 74 58 267 77
309 11 24 21 51 23 60 3 16 52 156 77 221 7 19 16 37 20 40 3 3 18 32 33 65
50 111 81 170 113 214 18 24 32 49 32 56 0 14 59 97 77 108 7 4 13 12 13 18 0
12 79 121 133 182 23 27 47 57 52 67 6 10 34 39 63 65 28 26 50 51 46 56 -3 5
-1 9 4 9 6 0 42 31 81 69 38 38 77 74 86 78 8 5 37 28 63 51 69 60 165 131
179 132 7 0 16 6 20 13 10 16 98 77 111 77 5 0 29 14 53 32 46 33 112 68 214
113 32 14 62 29 65 33 10 13 222 90 298 107 17 4 32 11 32 15 0 7 129 42 200
55 14 3 39 8 55 11 17 4 41 8 55 9 14 1 34 5 45 8 11 3 49 9 85 13 36 3 74 8
85 9 11 1 47 3 80 4 43 1 56 4 45 11 -8 5 -10 10 -4 10 5 0 15 -5 22 -12z
m802 -1088 c0 -5 -2 -10 -4 -10 -3 0 -8 5 -11 10 -3 6 -1 10 4 10 6 0 11 -4
11 -10z m-669 -883 c-7 -20 -18 -38 -26 -41 -21 -8 -19 7 5 34 11 13 20 30 20
38 0 9 3 13 6 9 3 -3 1 -21 -5 -40z m969 33 c0 -5 -7 -7 -15 -4 -8 4 -15 8
-15 10 0 2 7 4 15 4 8 0 15 -4 15 -10z m-1363 -1157 c-3 -10 -5 -4 -5 12 0 17
2 24 5 18 2 -7 2 -21 0 -30z m226 -473 c3 -11 1 -18 -4 -14 -5 3 -9 12 -9 20
0 20 7 17 13 -6z m-2 -41 c10 -19 9 -20 -10 -9 -12 6 -21 18 -21 26 0 19 16
10 31 -17z m-93 -135 c-4 -3 -12 5 -18 18 -12 22 -12 22 6 6 10 -10 15 -20 12
-24z m781 -663 c12 -7 21 -14 19 -17 -6 -6 -97 26 -103 36 -6 10 54 -3 84 -19z
m401 -201 c0 -4 -7 -7 -15 -6 -23 3 -26 12 -5 13 11 1 20 -2 20 -7z"/>
<path d="M1359 4364 c-25 -14 -46 -32 -46 -39 0 -9 11 -5 32 13 18 15 40 32
51 39 35 22 10 13 -37 -13z"/>
<path d="M3239 4348 c-20 -18 -60 -53 -90 -78 -74 -63 -123 -110 -114 -110 4
0 -7 -16 -24 -35 -17 -20 -31 -40 -31 -46 0 -6 -4 -8 -8 -5 -5 3 -17 -13 -26
-35 -10 -22 -27 -48 -37 -58 -11 -10 -28 -39 -37 -63 -9 -25 -21 -45 -27 -44
-16 2 -65 -106 -62 -136 2 -15 -1 -29 -6 -31 -6 -2 -5 -11 2 -23 10 -14 11
-15 7 -2 -3 10 -1 20 4 23 5 3 7 11 4 18 -3 8 0 24 6 38 10 23 10 23 6 -6 -4
-25 -1 -22 18 17 13 26 25 45 28 42 3 -2 8 2 12 11 3 10 2 14 -5 9 -6 -3 -5 3
3 15 7 12 16 21 19 21 4 0 13 15 20 33 13 32 32 51 78 75 16 8 27 9 31 2 3 -5
21 14 40 43 34 54 100 118 87 84 -3 -9 -3 -17 1 -17 10 0 52 56 52 69 0 5 15
19 33 30 17 11 62 51 98 89 58 60 62 66 32 51 -18 -9 -41 -23 -50 -31 -14 -11
-16 -11 -9 2 4 8 -1 5 -12 -7 -23 -27 -37 -30 -28 -7 3 8 2 12 -4 9 -6 -3 -10
-13 -10 -21 0 -8 -4 -12 -10 -9 -5 3 -10 1 -10 -6 0 -7 -3 -10 -6 -7 -3 3 -22
-11 -42 -31 -24 -24 -27 -26 -8 -5 15 18 25 37 22 43 -4 6 -2 11 4 11 6 0 8 5
5 10 -3 6 4 14 17 19 30 11 71 56 66 71 -2 7 -19 -3 -39 -22z m-142 -198 c1
-11 -2 -20 -6 -20 -5 0 -26 -17 -46 -37 l-38 -38 39 57 c21 32 41 58 44 58 3
0 6 -9 7 -20z"/>
<path d="M3305 3800 c-3 -5 -1 -10 4 -10 6 0 11 5 11 10 0 6 -2 10 -4 10 -3 0
-8 -4 -11 -10z"/>
<path d="M2835 3609 c-4 -11 -4 -23 -1 -26 3 -4 6 1 6 10 0 8 5 17 12 19 9 3
9 6 1 11 -7 4 -14 -1 -18 -14z"/>
<path d="M2560 2929 c12 -40 20 -49 20 -21 0 26 -10 52 -20 52 -5 0 -5 -14 0
-31z"/>
<path d="M2553 2691 c0 -11 5 -18 9 -15 4 3 5 11 1 19 -7 21 -12 19 -10 -4z"/>
<path d="M2791 2334 c0 -11 3 -14 6 -6 3 7 2 16 -1 19 -3 4 -6 -2 -5 -13z"/>
<path d="M3670 2020 c0 -5 5 -10 11 -10 5 0 7 5 4 10 -3 6 -8 10 -11 10 -2 0
-4 -4 -4 -10z"/>
<path d="M3750 1936 c0 -15 54 -56 74 -56 10 0 13 -6 10 -17 -5 -16 -4 -16 6
0 15 24 6 47 -19 47 -10 0 -21 6 -24 14 -7 18 -47 28 -47 12z"/>
<path d="M3850 1860 c0 -5 4 -10 9 -10 6 0 13 5 16 10 3 6 -1 10 -9 10 -9 0
-16 -4 -16 -10z"/>
<path d="M3870 1837 c0 -7 14 -24 32 -37 24 -18 30 -19 25 -6 -6 14 -3 15 14
5 17 -9 20 -8 17 3 -2 7 -19 17 -36 23 -18 5 -32 13 -32 17 0 4 -4 8 -10 8 -5
0 -10 -6 -10 -13z"/>
<path d="M3986 1775 c-9 -24 -8 -35 4 -35 6 0 20 -9 32 -20 l21 -20 -31 10
c-18 5 -32 5 -32 0 0 -11 44 -39 72 -44 12 -2 36 -11 52 -19 16 -9 46 -19 68
-22 28 -5 38 -11 38 -26 0 -10 3 -18 8 -17 16 4 72 -14 67 -22 -6 -9 18 -20
43 -20 15 0 15 2 2 10 -17 12 5 8 112 -20 37 -9 65 -14 63 -9 -3 4 -1 10 5 14
5 3 10 -3 10 -13 0 -17 4 -19 34 -12 19 4 38 5 42 1 4 -3 4 0 0 7 -9 15 -11
15 150 16 88 1 136 6 146 14 11 9 23 9 39 3 18 -7 19 -10 7 -10 -10 -1 -18 -6
-18 -12 0 -5 -4 -8 -9 -4 -5 3 -12 2 -15 -3 -3 -4 14 -9 37 -10 23 0 36 1 30
4 -10 4 -10 9 1 20 18 17 46 18 46 2 0 -9 3 -10 8 -2 4 6 14 14 22 17 8 3 0 6
-19 6 -26 1 -32 4 -27 17 3 8 2 12 -4 9 -6 -4 -41 -8 -78 -10 -37 -2 -89 -7
-117 -10 -129 -14 -198 -16 -204 -6 -4 5 -29 13 -56 16 -38 5 -46 3 -35 -5 12
-9 9 -10 -15 -6 -68 11 -130 34 -127 47 2 9 -3 8 -16 -4 -25 -23 -42 -22 -42
3 0 13 -7 20 -20 20 -11 0 -20 5 -20 11 0 6 -9 1 -20 -12 l-19 -24 -1 25 c0
31 -29 50 -117 75 -34 10 -61 21 -59 24 2 3 -9 19 -24 34 -23 25 -28 27 -34
12z"/>
<path d="M4095 1730 c-3 -5 -1 -10 4 -10 6 0 11 5 11 10 0 6 -2 10 -4 10 -3 0
-8 -4 -11 -10z"/>
<path d="M5495 1730 c3 -5 8 -10 11 -10 2 0 4 5 4 10 0 6 -5 10 -11 10 -5 0
-7 -4 -4 -10z"/>
<path d="M4170 1606 c0 -2 7 -6 15 -10 8 -3 15 -1 15 4 0 6 -7 10 -15 10 -8 0
-15 -2 -15 -4z"/>
<path d="M4703 1573 c9 -2 23 -2 30 0 6 3 -1 5 -18 5 -16 0 -22 -2 -12 -5z"/>
<path d="M4819 1507 c5 -5 19 -7 32 -5 20 3 19 5 -9 9 -20 3 -29 2 -23 -4z"/>
<path d="M4651 1501 c-8 -5 -9 -11 -3 -15 5 -3 12 1 16 9 6 17 6 18 -13 6z"/>
<path d="M4778 1503 c7 -3 16 -2 19 1 4 3 -2 6 -13 5 -11 0 -14 -3 -6 -6z"/>
<path d="M4800 1468 c0 -4 9 -8 19 -8 11 0 22 4 25 8 2 4 -6 8 -20 8 -13 0
-24 -4 -24 -8z"/>
<path d="M4283 971 c-21 -18 -21 -18 13 -17 36 1 42 7 22 24 -9 7 -19 5 -35
-7z"/>
<path d="M4770 980 c-27 -17 -1 -23 32 -7 31 16 31 17 8 17 -14 0 -32 -4 -40
-10z"/>
</g>
</svg>
